# xmcd
#
# Track frame offsets: 
#        182
#        27657
#        87700
#        101007
#        131225
#
# Disc length: 2232 seconds
#
# Revision: 7
# Processed by: cddbd v1.5.2PL0 Copyright (c) Steve Scherf et al.
# Submitted via: ExactAudioCopy v0.95b4
#
DISCID=4708b605
DTITLE=Frank Zappa - The Grand Wazoo [1986]
DYEAR=1972
DGENRE=Rock
TTITLE0=For Calvin (And His Next Two Hitch-Hikers)
TTITLE1=The Grand Wazoo
TTITLE2=Cletus Awreetus-Awrightus
TTITLE3=Eat That Question
TTITLE4=Blessed Relief
EXTD=YEAR: 1972
EXTT0=
EXTT1=
EXTT2=
EXTT3=
EXTT4=
PLAYORDER=
